<svg xmlns="http://www.w3.org/2000/svg" width="1257" height="244" viewBox="0 0 1257 244">
  <g fill="none" transform="translate(.86 .976)">
    <path fill="#193767" d="M938.31,213.814466 C938.668985,213.814466 938.96,214.105481 938.96,214.464466 L938.96,217.294466 C938.96,217.653451 938.668985,217.944466 938.31,217.944466 L935.55,217.944466 C935.191015,217.944466 934.9,217.653451 934.9,217.294466 L934.9,214.464466 C934.9,214.105481 935.191015,213.814466 935.55,213.814466 L938.31,213.814466 Z M932.82,213.814466 C933.178985,213.814466 933.47,214.105481 933.47,214.464466 L933.47,217.294466 C933.47,217.653451 933.178985,217.944466 932.82,217.944466 L930.06,217.944466 C929.701015,217.944466 929.41,217.653451 929.41,217.294466 L929.41,214.464466 C929.41,214.105481 929.701015,213.814466 930.06,213.814466 L932.82,213.814466 Z M1126.24,213.814466 C1126.59899,213.814466 1126.89,214.105481 1126.89,214.464466 L1126.89,217.294466 C1126.89,217.653451 1126.59899,217.944466 1126.24,217.944466 L1123.47,217.944466 C1123.11101,217.944466 1122.82,217.653451 1122.82,217.294466 L1122.82,214.464466 C1122.82,214.105481 1123.11101,213.814466 1123.47,213.814466 L1126.24,213.814466 Z M1131.73,213.814466 C1132.08899,213.814466 1132.38,214.105481 1132.38,214.464466 L1132.38,217.294466 C1132.38,217.653451 1132.08899,217.944466 1131.73,217.944466 L1128.96,217.944466 C1128.60101,217.944466 1128.31,217.653451 1128.31,217.294466 L1128.31,214.464466 C1128.31,214.105481 1128.60101,213.814466 1128.96,213.814466 L1131.73,213.814466 Z M371.4,188.154345 C373.64027,188.146415 375.810074,188.937046 377.52,190.384466 C378.668395,191.378006 379.600924,192.596419 380.26,193.964466 L376.14,196.164466 C375.814955,195.271519 375.271821,194.474005 374.56,193.844466 C373.768443,193.134069 372.743581,192.73907 371.68,192.734466 C368.29,192.734466 366.5,196.094466 366.5,199.844466 C366.5,204.764466 368.85,207.214466 371.68,207.214466 C374.51,207.214466 375.51,205.214466 376.23,203.874466 L380.32,206.134466 C379.54832,207.619702 378.463321,208.919654 377.14,209.944466 C375.450756,211.220547 373.396932,211.921511 371.28,211.944466 C365.72,211.944466 361.23,207.624466 361.23,200.034466 C361.23,193.394466 365.45,188.154345 371.4,188.154345 Z M1250.64,197.304466 C1251.63539,197.642485 1252.53663,198.211327 1253.27,198.964466 C1253.96617,199.704324 1254.47683,200.598831 1254.76,201.574466 C1255.06201,202.654744 1255.20683,203.772893 1255.19,204.894466 C1255.21411,206.008175 1255.0965,207.120429 1254.84,208.204466 C1254.48049,209.847185 1253.14327,211.096851 1251.48,211.344466 C1250.65575,211.498184 1249.82059,211.584277 1248.98287,211.602025 L1248.48,211.604466 L1241.14,211.604466 C1240.71,211.594466 1240.29,211.574466 1239.87,211.524466 C1239.45,211.474466 1239.07,211.424466 1238.74,211.354466 C1238.50525,211.316292 1238.2787,211.238519 1238.07,211.124466 C1237.69361,211.346579 1237.27438,211.486321 1236.84,211.534466 C1236.41679,211.583108 1235.99163,211.612175 1235.56589,211.621596 L1235.14,211.624466 L1136.03,211.624466 C1135.23751,211.637975 1134.44784,211.526611 1133.69,211.294466 C1133.12902,211.118181 1132.6387,210.767948 1132.29,210.294466 C1131.9607,210.744759 1131.50969,211.091686 1130.99,211.294466 C1130.24861,211.540481 1129.47418,211.669738 1128.69443,211.678231 L1128.36,211.674466 L1027.48,211.674466 C1026.63434,211.691622 1025.79204,211.563079 1024.99,211.294466 C1024.37937,211.065919 1023.85983,210.644664 1023.51,210.094466 C1023.11855,210.638024 1022.57096,211.049589 1021.94,211.274466 C1021.13055,211.527052 1020.28968,211.66208 1019.44309,211.67595 L1019.08,211.674466 L1011.7,211.674466 C1011.52421,211.686426 1011.35184,211.621794 1011.22726,211.497208 C1011.12759,211.397539 1011.06629,211.267288 1011.05116,211.129172 L1011.04747,211.024466 L1011.04747,208.434466 C1011.03804,208.258681 1011.10267,208.08631 1011.22726,207.961724 C1011.32693,207.862055 1011.45718,207.800757 1011.59529,207.786348 L1011.7,207.784466 L1017.83,207.784466 C1018.27975,207.794828 1018.72924,207.754575 1019.17,207.664466 C1019.41516,207.610962 1019.64038,207.489692 1019.82,207.314466 C1019.974,207.129298 1020.07123,206.903582 1020.1,206.664466 C1020.13795,206.408477 1020.16249,206.150768 1020.17354,205.892394 L1020.18,205.504466 L1020.18,203.294466 C1020.25978,202.552616 1019.99432,201.815241 1019.46,201.294466 C1018.84746,200.876967 1018.12353,200.658121 1017.38615,200.664108 L1017.14,200.674466 L1013.14,200.674466 C1012.96499,200.68681 1012.79334,200.621933 1012.67025,200.496915 C1012.57177,200.396901 1012.51226,200.266414 1012.50011,200.128722 L1012.50011,197.31021 C1012.51226,197.172518 1012.57177,197.042031 1012.67025,196.942017 C1012.76872,196.842002 1012.89827,196.780479 1013.03576,196.76619 L1013.14,196.764466 L1018.14,196.764466 C1019.80247,196.679105 1021.43976,197.197639 1022.75,198.224466 C1023.8425,199.155466 1024.4296,200.646016 1024.48558,202.653247 L1024.49,202.974466 L1024.49,206.074466 C1024.46363,206.555565 1024.6865,207.01642 1025.08,207.294466 C1025.55309,207.597924 1026.10066,207.761614 1026.65987,207.769039 L1026.87,207.764466 L1127.37,207.764466 C1127.6244,207.778935 1127.87847,207.730868 1128.11,207.624466 C1128.26465,207.5353 1128.38185,207.393238 1128.44,207.224466 C1128.50813,207.007952 1128.55541,206.785599 1128.58128,206.560444 L1128.6,206.334466 L1128.6,198.004466 C1128.58811,197.751 1128.74814,197.521217 1128.99,197.444466 C1129.10715,197.399019 1129.22996,197.370481 1129.35472,197.35953 L1129.48,197.354466 L1132.31,197.354466 C1132.48579,197.342506 1132.65816,197.407138 1132.78274,197.531724 C1132.88241,197.631393 1132.94371,197.761644 1132.95812,197.89976 L1132.96,198.004466 L1132.96,206.004466 C1132.93335,206.498613 1133.16408,206.971415 1133.57,207.254466 C1134.04681,207.55695 1134.597,207.720386 1135.15887,207.728666 L1135.37,207.724466 L1234.37,207.724466 C1234.60608,207.736587 1234.84187,207.69558 1235.06,207.604466 C1235.19031,207.533968 1235.29263,207.421066 1235.35,207.284466 C1235.41799,207.112478 1235.46169,206.932172 1235.48008,206.748743 L1235.49,206.564466 L1235.49,197.834466 C1235.47804,197.658681 1235.54267,197.48631 1235.66726,197.361724 C1235.76693,197.262055 1235.89718,197.200757 1236.03529,197.186348 L1236.14,197.184466 L1239.22,197.184466 C1239.39501,197.172122 1239.56666,197.236999 1239.68975,197.362017 C1239.78823,197.462031 1239.84774,197.592518 1239.85989,197.73021 L1239.86,197.834466 L1239.86,198.384466 C1240.83387,197.947355 1241.83615,197.576511 1242.86,197.274466 C1244.16053,196.902475 1245.50734,196.717289 1246.86,196.724466 C1248.14431,196.693947 1249.42393,196.890291 1250.64,197.304466 Z M996.83,188.584466 C997.011553,188.559234 997.19468,188.618375 997.327181,188.745031 C997.459682,188.871686 997.52702,189.05196 997.51,189.234466 L997.51,189.234466 L997.51,207.064466 C997.59309,208.268447 997.23791,209.461854 996.51,210.424466 C995.651773,211.236084 994.486468,211.640299 993.31,211.534466 L993.31,211.534466 L942.58,211.534466 C941.787431,211.549322 940.99755,211.437928 940.24,211.204466 C940.073032,210.59659 939.52039,210.175276 938.89,210.175276 C938.25961,210.175276 937.706968,210.59659 937.54,211.204466 C936.689233,211.485562 935.795509,211.614204 934.9,211.584466 L934.9,211.584466 L830.94,211.584466 C830.004459,211.630526 829.074163,211.419567 828.25,210.974466 C827.648732,210.574333 827.211999,209.970717 827.02,209.274466 C826.599681,209.554347 826.141787,209.773193 825.66,209.924466 C824.146635,210.356047 822.539595,210.331698 821.04,209.854466 C820.260784,209.617575 819.543641,209.211194 818.94,208.664466 C818.331231,208.107317 817.850225,207.425039 817.53,206.664466 C817.159525,205.729745 816.982621,204.729556 817.01,203.724466 C816.978225,202.590969 817.171975,201.462455 817.58,200.404466 C817.914271,199.569399 818.442087,198.825658 819.12,198.234466 C819.747249,197.687835 820.488609,197.288115 821.29,197.064466 C822.103235,196.834309 822.944836,196.719852 823.79,196.724466 L823.79,196.724466 L826.79,196.724466 L826.79,195.624466 C826.77804,195.448681 826.842672,195.27631 826.967258,195.151724 C827.091844,195.027138 827.264215,194.962506 827.44,194.974466 L827.44,194.974466 L830.44,194.974466 C830.615785,194.962506 830.788156,195.027138 830.912742,195.151724 C831.037328,195.27631 831.10196,195.448681 831.09,195.624466 L831.09,195.624466 L831.09,206.334466 C831.04333,206.737189 831.146563,207.142998 831.38,207.474466 C831.660614,207.701978 832.021203,207.806548 832.38,207.764466 L832.38,207.764466 L833.63,207.764466 C833.693077,207.756411 833.756923,207.756411 833.82,207.764466 C833.889491,207.752525 833.960509,207.752525 834.03,207.764466 L834.03,207.764466 L934.03,207.764466 C934.287683,207.779767 934.54519,207.731699 934.78,207.624466 C934.929191,207.53156 935.04211,207.390412 935.1,207.224466 C935.200524,206.938249 935.254542,206.637774 935.26,206.334466 L935.26,206.334466 L935.26,198.004466 C935.25504,197.747651 935.416804,197.517137 935.66,197.434466 C935.814623,197.382024 935.976727,197.355006 936.14,197.354466 L936.14,197.354466 L938.93,197.354466 C939.105785,197.342506 939.278156,197.407138 939.402742,197.531724 C939.527328,197.65631 939.59196,197.828681 939.58,198.004466 L939.58,198.004466 L939.58,206.004466 C939.549157,206.497094 939.776343,206.970398 940.18,207.254466 C940.72083,207.593109 941.352737,207.757195 941.99,207.724466 L941.99,207.724466 L991.83,207.724466 C992.188797,207.766548 992.549386,207.661978 992.83,207.434466 C993.063437,207.102998 993.16667,206.697189 993.12,206.294466 L993.12,206.294466 L993.12,189.234466 C993.104546,189.057789 993.168047,188.883326 993.293454,188.75792 C993.41886,188.632513 993.593323,188.569012 993.77,188.584466 L993.77,188.584466 L996.83,188.584466 Z M187.37,188.824466 C189.57,188.824466 192.3,188.894466 194.23,191.114466 C195.347099,192.538415 195.937139,194.305002 195.9,196.114466 C196.125739,198.94226 194.320443,201.535016 191.59,202.304466 L196.43,211.304466 L190.64,211.304466 L186.47,203.304466 L183.14,203.304466 L183.14,211.304466 L177.88,211.304466 L177.91,188.824466 L187.37,188.824466 Z M130.06,188.824466 L137.79,211.244466 L132.2,211.244466 L131.2,207.654466 L123.46,207.654466 L122.46,211.244466 L116.87,211.244466 L124.66,188.824466 L130.06,188.824466 Z M63.82,188.824466 L63.82,196.924466 L71.5,196.924466 L71.5,188.824466 L76.76,188.824466 L76.76,211.244466 L71.5,211.244466 L71.5,201.684466 L63.82,201.684466 L63.82,211.244466 L58.53,211.244466 L58.53,188.824466 L63.82,188.824466 Z M314.8,188.824466 L322.53,211.244466 L316.94,211.244466 L315.94,207.654466 L308.14,207.654466 L307.14,211.244466 L301.54,211.244466 L309.33,188.824466 L314.8,188.824466 Z M8.45,188.824466 C11.89,188.824466 14.96,188.824466 16.8,191.654466 C17.5948082,193.05626 18.0053159,194.643096 17.99,196.254466 C18.0012351,197.454769 17.7593083,198.643958 17.28,199.744466 C15.46,203.744466 11.6,203.844466 8.74,203.904466 L5.26,203.904466 L5.26,211.244466 L-3.41060513e-13,211.244466 L-3.41060513e-13,188.824466 L8.45,188.824466 Z M245.96,188.824466 L249.14,201.404466 L249.88,204.984466 C250.18,203.434466 250.21,203.274466 250.44,202.224466 L253.8,188.824466 L261.48,188.824466 L261.48,211.244466 L256.48,211.244466 L256.81,195.244466 L256.87,192.984466 L256.69,193.784466 C256.42,195.054466 256.39,195.214466 256.15,196.164466 L252.15,211.214466 L247.63,211.214466 L243.84,196.824466 L242.92,192.824466 C243.01,194.604466 243.01,194.984466 243.1,197.114466 L243.37,211.244466 L238.29,211.244466 L238.29,188.824466 L245.96,188.824466 Z M423.41,188.824466 L427.93,196.514466 C428.160132,195.924105 428.448206,195.358005 428.79,194.824466 L432.39,188.824466 L438.39,188.824466 L430.45,200.634466 L430.45,211.244466 L425.28,211.244466 L425.28,200.794466 L417.41,188.824466 L423.41,188.824466 Z M1246.26,200.664466 L1246.26,200.664466 C1245.06276,200.664499 1243.87249,200.84658 1242.73,201.204466 C1241.92886,201.456039 1241.14031,201.745713 1240.36704,202.072465 L1239.79,202.324466 L1239.79,207.734466 L1246.56,207.734466 C1247.47,207.734466 1248.23,207.684466 1248.83,207.684466 C1249.25001,207.686138 1249.66335,207.57936 1250.03,207.374466 C1250.2556,207.209401 1250.41936,206.975367 1250.49793,206.70974 L1250.53,206.574466 L1250.53,206.564466 C1250.63123,205.966789 1250.66144,205.359238 1250.62,204.754466 C1250.62687,204.151861 1250.5597,203.550694 1250.42,202.964466 C1250.30401,202.499426 1250.06977,202.072271 1249.74,201.724466 C1249.37255,201.36272 1248.92313,201.095125 1248.43,200.944466 C1247.92718,200.796142 1247.40982,200.705544 1246.88788,200.673959 L1246.57425,200.6621 L1246.26,200.664466 Z M824.17,200.664466 C823.345833,200.546668 822.516673,200.843531 821.954556,201.457659 C821.392439,202.071786 821.169918,202.923912 821.36,203.734466 C821.298637,204.468486 821.549088,205.194431 822.05,205.734466 C822.608909,206.198242 823.325677,206.427608 824.05,206.374466 C824.833855,206.445225 825.607139,206.154323 826.15,205.584466 C826.650522,204.869757 826.890562,204.004904 826.83,203.134466 L826.83,203.134466 L826.83,200.654466 L824.17,200.664466 Z M127.23,194.164466 C126.96,195.304466 126.67,196.474466 126.37,197.624466 C125.92,199.304466 125.12,201.944466 124.64,203.624466 L129.97,203.624466 L127.23,194.164466 Z M311.98,194.164466 C311.71,195.304466 311.41,196.474466 311.11,197.624466 C310.67,199.304466 309.87,201.944466 309.39,203.624466 L314.71,203.624466 L311.98,194.164466 Z M8.59,192.954466 L5.26,192.954466 L5.26,199.744466 L8.7010067,199.743741 L8.9919255,199.740079 C10.8400325,199.703002 12.76,199.358582 12.76,196.224466 C12.76,192.954466 10.11,192.954466 8.59,192.954466 Z M187.64,193.014466 L183.14,193.024466 L183.14,199.094466 L187.48,199.094466 C188.329693,199.190727 189.177706,198.90037 189.790075,198.303504 C190.402444,197.706638 190.714446,196.866347 190.64,196.014466 C190.64,193.154466 188.7,193.014466 187.64,193.014466 Z M824.8,189.214466 C825.158985,189.214466 825.45,189.505481 825.45,189.864466 L825.45,192.694466 C825.45,193.053451 825.158985,193.344466 824.8,193.344466 L822.03,193.344466 C821.671015,193.344466 821.38,193.053451 821.38,192.694466 L821.38,189.864466 C821.38,189.505481 821.671015,189.214466 822.03,189.214466 L824.8,189.214466 Z M830.29,189.214466 C830.648985,189.214466 830.94,189.505481 830.94,189.864466 L830.94,192.694466 C830.94,193.053451 830.648985,193.344466 830.29,193.344466 L827.52,193.344466 C827.161015,193.344466 826.87,193.053451 826.87,192.694466 L826.87,189.864466 C826.87,189.505481 827.161015,189.214466 827.52,189.214466 L830.29,189.214466 Z M1203.89,88.3044658 L1217.27,88.3044658 C1217.66592,88.2509207 1218.06414,88.3853142 1218.34664,88.6678215 C1218.62915,88.9503287 1218.76355,89.3485446 1218.71,89.7444658 L1218.71,129.864466 C1218.71,136.091133 1217.41333,140.667799 1214.82,143.594466 C1212.22667,146.521133 1207.92,147.997799 1201.9,148.024466 L1178.27,148.024466 C1175.67747,148.060935 1173.0906,147.772012 1170.57,147.164466 C1168.28169,146.568327 1166.24299,145.258238 1164.75,143.424466 L1164.75,145.014466 C1164.84958,149.922543 1163.99369,154.803143 1162.23,159.384466 C1160.67705,163.332784 1158.21351,166.858491 1155.04,169.674466 C1151.79659,172.470323 1148.00096,174.552124 1143.9,175.784466 C1139.23128,177.171348 1134.37997,177.845609 1129.51,177.784466 C1124.76877,177.833767 1120.04778,177.15934 1115.51,175.784466 C1111.41756,174.53187 1107.62592,172.452254 1104.37,169.674466 C1101.14215,166.859399 1098.60653,163.33827 1096.96,159.384466 C1095.09555,154.775598 1094.19045,149.834961 1094.3,144.864466 C1094.31161,139.592486 1095.13804,134.353976 1096.75,129.334466 C1098.14623,124.630695 1100.16404,120.134328 1102.75,115.964466 C1103.22,115.104466 1103.94,114.964466 1104.9,115.674466 L1116.55,120.274466 C1117.03,120.474466 1117.29,120.734466 1117.34,121.064466 C1117.38376,121.437535 1117.31037,121.814978 1117.13,122.144466 C1115.43412,125.170758 1113.9667,128.319521 1112.74,131.564466 C1111.31397,135.354009 1110.60525,139.375739 1110.65,143.424466 C1110.54996,146.658629 1111.16456,149.875043 1112.45,152.844466 C1113.51035,155.197594 1115.08177,157.284849 1117.05,158.954466 C1118.88153,160.468846 1121.01602,161.573599 1123.31,162.194466 C1125.51243,162.801358 1127.7855,163.114073 1130.07,163.124466 C1135.53,163.124466 1139.96333,161.664466 1143.37,158.744466 C1146.77667,155.824466 1148.48,151.101133 1148.48,144.574466 L1148.48,101.824466 C1148.42212,101.42761 1148.55509,101.026732 1148.83868,100.743143 C1149.12227,100.459555 1149.52314,100.326582 1149.92,100.384466 L1163.29,100.384466 C1163.68686,100.326582 1164.08773,100.459555 1164.37132,100.743143 C1164.65491,101.026732 1164.78788,101.42761 1164.73,101.824466 L1164.73,124.824466 C1164.59969,127.439128 1165.81894,129.93804 1167.96,131.444466 C1170.12,132.971133 1173.02,133.737799 1176.66,133.744466 L1195.55,133.744466 C1197.95,133.744466 1199.7,133.194466 1200.8,132.094466 C1201.9,130.994466 1202.45,128.994466 1202.45,126.094466 L1202.45,89.7444658 C1202.39212,89.3476102 1202.52509,88.9467316 1202.80868,88.6631431 C1203.09227,88.3795546 1203.49314,88.2465822 1203.89,88.3044658 Z M938.911323,157.033143 C939.194911,157.316732 939.327884,157.71761 939.27,158.114466 L939.27,170.474466 C939.327884,170.871322 939.194911,171.2722 938.911323,171.555789 C938.627734,171.839377 938.226856,171.97235 937.83,171.914466 L925.75,171.924466 C925.353144,171.98235 924.952266,171.849377 924.668677,171.565789 C924.385089,171.2822 924.252116,170.881322 924.31,170.484466 L924.31,158.114466 C924.252116,157.71761 924.385089,157.316732 924.668677,157.033143 C924.952266,156.749555 925.353144,156.616582 925.75,156.674466 L937.83,156.674466 C938.226856,156.616582 938.627734,156.749555 938.911323,157.033143 Z M907.06,156.674466 L919.14,156.674466 C919.535921,156.620921 919.934137,156.755314 920.216644,157.037822 C920.499152,157.320329 920.633545,157.718545 920.58,158.114466 L920.58,170.474466 C920.633545,170.870387 920.499152,171.268603 920.216644,171.55111 C919.934137,171.833618 919.535921,171.968011 919.14,171.914466 L907.06,171.924466 C906.663144,171.98235 906.262266,171.849377 905.978677,171.565789 C905.695089,171.2822 905.562116,170.881322 905.62,170.484466 L905.62,158.114466 C905.562116,157.71761 905.695089,157.316732 905.978677,157.033143 C906.262266,156.749555 906.663144,156.616582 907.06,156.674466 Z M1201.14,156.384466 L1214.95,156.384466 C1215.34526,156.330089 1215.7431,156.46462 1216.02424,156.747725 C1216.30537,157.030829 1216.43713,157.429595 1216.38,157.824466 L1216.38,170.194466 C1216.43365,170.587741 1216.30034,170.983482 1216.01968,171.264145 C1215.73902,171.544809 1215.34328,171.678114 1214.95,171.624466 L1201.14,171.624466 C1200.74513,171.681596 1200.34636,171.549841 1200.06326,171.268702 C1199.78015,170.987563 1199.64562,170.589726 1199.7,170.194466 L1199.7,157.824466 C1199.64212,157.42761 1199.77509,157.026732 1200.05868,156.743143 C1200.34227,156.459555 1200.74314,156.326582 1201.14,156.384466 Z M226.43,47.7944658 C244.53,47.7944658 254.29,54.4744658 260.67,68.7944658 C261.97,71.7144658 261.19,73.7944658 258.19,75.1944658 L251.03,78.5344658 C248.03,79.7844658 247.03,79.3644658 245.44,76.1644658 C241.79,68.3744658 236.33,64.4844658 226.44,64.4844658 C213.82,64.4844658 207.57,68.7944658 207.57,77.2744658 C206.79,84.6544658 214.47,87.9844658 221.37,89.1044658 C225.37,89.9344658 234.77,91.0444658 239.59,92.0244658 C244.8,93.1344658 251.95,95.9144658 255.99,99.8144658 C260.03,103.714466 263.14,110.674466 263.14,119.574466 C263.14,138.494466 249.47,150.734466 226.04,150.734466 C206.39,150.734466 195.85,143.084466 190.25,127.504466 C189.08,124.024466 189.86,122.504466 192.98,121.384466 L200.14,118.604466 C203.14,117.484466 204.31,118.184466 205.74,121.524466 C209.12,130.144466 215.886667,134.457799 226.04,134.464466 C239.84,134.464466 246.74,129.594466 246.74,119.994466 C246.74,113.874466 241.74,110.114466 236.59,108.724466 C233.15559,107.889796 229.661882,107.321441 226.14,107.024466 C221.457859,106.578505 216.808589,105.837027 212.22,104.804466 C207.670783,103.884293 203.393983,101.930651 199.72,99.0944658 C193.86,95.0944658 191.13,88.5244658 190.72,78.2344658 C190.77,60.0244658 203.66,47.7944658 226.43,47.7944658 Z M409.95,74.5044658 C428.56,74.5044658 437.8,84.1044658 437.8,103.164466 L437.8,139.164466 C437.8,144.024466 436.8,145.424466 433.12,147.084466 C427.91,149.454466 420.12,150.704466 409.69,150.704466 C398.63,150.704466 391.08,148.894466 386.91,145.144466 C382.74,141.394466 380.67,135.824466 380.67,128.144466 C380.67,111.584466 389,105.744466 410.21,105.744466 C411.12,105.744466 415.29,106.024466 422.71,106.444466 L422.71,102.544466 C422.71,93.5444658 419.06,88.7744658 409.71,88.7744658 C403.33,88.7744658 398.773333,91.0011325 396.04,95.4544658 C394.09,98.3744658 393.44,98.6544658 390.45,97.5344658 L385.24,95.1744658 C382.38,93.7844658 381.6,91.6944658 383.03,88.9144658 C387.69,79.3744658 396.67,74.5044658 409.95,74.5044658 Z M340.06,74.5044658 C358.28,74.5044658 367.13,84.5044658 367.13,102.504466 L367.13,144.374466 C367.13,147.574466 366.13,148.684466 363.13,148.684466 L355.94,148.684466 C352.94,148.684466 352.03,147.574466 352.03,144.374466 L352.03,102.884466 C352.03,93.8844658 347.35,89.2544658 337.85,89.2544658 C333.617655,89.2389038 329.405996,89.8453827 325.35,91.0544658 C324.759833,91.2550829 324.383747,91.8336759 324.44,92.4544658 L324.44,144.334466 C324.44,147.534466 323.53,148.644466 320.54,148.644466 L313.38,148.644466 C310.38,148.644466 309.38,147.534466 309.38,144.334466 L309.38,87.1644658 C309.38,82.7144658 310.29,81.0444658 314.46,79.2344658 C321.84,76.0244658 330.3,74.5044658 340.06,74.5044658 Z M148.86,74.5044658 C167.08,74.5044658 175.94,84.5044658 175.94,102.504466 L175.94,144.374466 C175.94,147.574466 174.89,148.684466 171.94,148.684466 L164.74,148.684466 C161.74,148.684466 160.84,147.574466 160.84,144.374466 L160.84,102.884466 C160.84,93.8844658 156.15,89.2544658 146.65,89.2544658 C142.415722,89.227171 138.200505,89.8235687 134.14,91.0244658 C133.545857,91.221419 133.165024,91.8009487 133.22,92.4244658 L133.22,144.304466 C133.22,147.504466 132.31,148.614466 129.32,148.614466 L122.14,148.614466 C119.14,148.614466 118.14,147.504466 118.14,144.304466 L118.14,87.1644658 C118.14,82.7144658 119.05,81.0444658 123.21,79.2344658 C130.64,76.0244658 139.14,74.5044658 148.86,74.5044658 Z M89.64,76.5944658 L96.8,76.6044658 C99.8,76.6044658 100.8,77.6044658 100.8,80.7744658 L100.8,144.344466 C100.8,147.544466 99.8,148.654466 96.8,148.654466 L89.64,148.654466 C86.64,148.654466 85.74,147.544466 85.74,144.344466 L85.74,80.7644658 C85.74,77.5644658 86.65,76.5944658 89.64,76.5944658 Z M280.84,76.5944658 L288,76.6044658 C291,76.6044658 292,77.6044658 292,80.7744658 L292,144.344466 C292,147.544466 291,148.654466 288,148.654466 L280.84,148.654466 C277.84,148.654466 276.93,147.544466 276.93,144.344466 L276.93,80.7644658 C276.93,77.5644658 277.85,76.5944658 280.84,76.5944658 Z M40.71,49.8844658 C57.5,49.8844658 67.39,59.2044658 67.39,75.8844658 C67.39,85.7644658 64.13,92.7144658 57.5,96.8844658 L57.5,97.4344658 C66.35,100.774466 70.77,108.844466 70.77,121.504466 C70.77,138.614466 59.06,148.624466 41.49,148.624466 L4.65,148.624466 C1.4,148.624466 0.1,147.374466 0.1,143.904466 L0.1,54.6144658 C0.1,51.1344658 1.4,49.8844658 4.65,49.8844658 L40.71,49.8844658 Z M818.31,50.1944658 L831.69,50.1944658 C832.085921,50.1409207 832.484137,50.2753142 832.766644,50.5578215 C833.049152,50.8403287 833.183545,51.2385446 833.13,51.6344658 L833.13,126.124466 C833.13,128.997799 833.68,130.997799 834.78,132.124466 C835.825,133.194799 837.456625,133.744691 839.674875,133.774141 L863.97,133.774466 C865.301286,133.833048 866.628366,133.586786 867.85,133.054466 C868.808879,132.577941 869.551957,131.756269 869.93,130.754466 C870.423399,129.417703 870.69367,128.008916 870.73,126.584466 C870.82,124.854466 870.87,122.754466 870.87,120.254466 L870.87,89.7444658 C870.812116,89.3476102 870.945089,88.9467316 871.228677,88.6631431 C871.512266,88.3795546 871.913144,88.2465822 872.31,88.3044658 L885.68,88.3044658 C886.076856,88.2465822 886.477734,88.3795546 886.761323,88.6631431 C887.044911,88.9467316 887.177884,89.3476102 887.12,89.7444658 L887.12,124.824466 C886.99001,127.441417 888.213667,129.941606 890.36,131.444466 C892.506667,132.971133 895.406667,133.737799 899.06,133.744466 L918.06,133.744466 C919.439186,133.831027 920.817277,133.558854 922.06,132.954466 C922.991886,132.395915 923.69932,131.529308 924.06,130.504466 C924.547923,129.11817 924.814521,127.663693 924.85,126.194466 C924.95,124.427799 925,122.247799 925,119.654466 L925,89.7444658 C924.959406,89.2228569 925.288554,88.743717 925.79,88.5944658 C926.318802,88.4020253 926.877271,88.3038702 927.44,88.3044658 L939.81,88.3044658 C940.206856,88.2465822 940.607734,88.3795546 940.891323,88.6631431 C941.174911,88.9467316 941.307884,89.3476102 941.25,89.7444658 L941.25,124.824466 C941.119687,127.439128 942.338945,129.93804 944.48,131.444466 C946.64,132.971133 949.54,133.737799 953.18,133.744466 L976.29,133.744466 C979.263333,133.744466 981.13,132.954466 981.89,131.374466 C982.65,129.794466 983.033333,126.941133 983.04,122.814466 L983.04,101.104466 C982.982116,100.70761 983.115089,100.306732 983.398677,100.023143 C983.682266,99.7395548 984.083144,99.6065818 984.48,99.6644658 L997.86,99.6644658 C998.255921,99.6109208 998.654137,99.7453138 998.936644,100.027822 C999.21915,100.310329 999.35355,100.708545 999.3,101.104466 L999.3,124.824466 C999.3,130.771133 1002.75,133.744466 1009.65,133.744466 C1011.32412,133.775723 1012.99763,133.655231 1014.65,133.384466 C1015.77432,133.224493 1016.82194,132.721637 1017.65,131.944466 C1018.45341,131.043226 1018.95665,129.914433 1019.09,128.714466 C1019.36394,126.760223 1019.48431,124.787517 1019.45,122.814466 L1019.45,101.104466 C1019.39212,100.70761 1019.52509,100.306732 1019.80868,100.023143 C1020.09227,99.7395548 1020.49314,99.6065818 1020.89,99.6644658 L1034.14,99.6644658 C1034.53686,99.6065818 1034.93773,99.7395548 1035.22132,100.023143 C1035.50491,100.306732 1035.63788,100.70761 1035.58,101.104466 L1035.58,124.684466 C1035.58,127.754466 1036.49,130.024466 1038.31,131.514466 C1040.41945,133.095556 1043.01753,133.88489 1045.65,133.744466 C1047.48319,133.788963 1049.31538,133.62118 1051.11,133.244466 C1052.34005,133.012719 1053.42298,132.290761 1054.11,131.244466 C1054.82325,129.937934 1055.23979,128.490269 1055.33,127.004466 C1055.51667,125.184466 1055.61333,122.741133 1055.62,119.674466 L1055.62,89.7444658 C1055.56212,89.3476102 1055.69509,88.9467316 1055.97868,88.6631431 C1056.26227,88.3795546 1056.66314,88.2465822 1057.06,88.3044658 L1070.43,88.3044658 C1070.82686,88.2465822 1071.22773,88.3795546 1071.51132,88.6631431 C1071.79491,88.9467316 1071.92788,89.3476102 1071.87,89.7444658 L1071.87,129.864466 C1071.87,136.471133 1070.50333,141.137799 1067.77,143.864466 C1065.03667,146.591133 1060.40667,147.977799 1053.88,148.024466 L1047.7,148.024466 C1044.7227,148.099635 1041.77576,147.411097 1039.14,146.024466 C1036.82736,144.766091 1034.94867,142.838608 1033.75,140.494466 C1032.59764,143.088235 1030.52377,145.162104 1027.93,146.314466 C1024.64773,147.562645 1021.14956,148.143973 1017.64,148.024466 L1011.32,148.024466 C1004.50667,148.024466 999.84,145.484466 997.32,140.404466 C996.151647,143.009766 994.081171,145.105103 991.49,146.304466 C988.983333,147.451133 985.533333,148.024466 981.14,148.024466 L955.59,148.024466 C952.278796,148.08774 948.978308,147.628777 945.81,146.664466 C942.889571,145.630528 940.50522,143.469484 939.19,140.664466 C937.992986,143.313088 935.796348,145.380301 933.08,146.414466 C929.537729,147.596424 925.811743,148.131611 922.08,147.994466 L901.5,147.994466 C898.188796,148.05774 894.888308,147.598777 891.72,146.634466 C888.802161,145.60021 886.421065,143.438852 885.11,140.634466 C883.927407,143.253915 881.777378,145.314359 879.11,146.384466 C876.463333,147.477799 872.853333,148.024466 868.28,148.024466 L833.7,148.024466 C827.66,148.024466 823.346667,146.564466 820.76,143.644466 C818.173333,140.724466 816.876667,136.147799 816.87,129.914466 L816.87,51.6344658 C816.812116,51.2376102 816.945089,50.8367316 817.228677,50.5531431 C817.512266,50.2695546 817.913144,50.1365822 818.31,50.1944658 Z M1253.27132,50.5531431 C1253.55491,50.8367316 1253.68788,51.2376102 1253.63,51.6344658 L1253.63,146.544466 C1253.68438,146.939726 1253.54985,147.337563 1253.26674,147.618702 C1252.98364,147.899841 1252.58487,148.031596 1252.19,147.974466 L1238.82,147.974466 C1238.42513,148.031596 1238.02636,147.899841 1237.74326,147.618702 C1237.46015,147.337563 1237.32562,146.939726 1237.38,146.544466 L1237.38,51.6344658 C1237.32212,51.2376102 1237.45509,50.8367316 1237.73868,50.5531431 C1238.02227,50.2695546 1238.42314,50.1365822 1238.82,50.1944658 L1252.19,50.1944658 C1252.58686,50.1365822 1252.98773,50.2695546 1253.27132,50.5531431 Z M408.52,119.014466 C399.15,119.014466 396.02,121.944466 396.02,128.014466 C396.02,134.084466 398.76,137.334466 408.26,137.334466 C412.620807,137.423711 416.978717,137.048261 421.26,136.214466 C422.12049,135.963538 422.70895,135.170752 422.7,134.274466 L422.71,119.714466 C413.59,119.294466 408.91,119.014466 408.52,119.014466 Z M41.14,106.504466 L16.5,106.504466 L16.5,132.374466 L41.14,132.374466 C49.34,132.374466 53.5,128.064466 53.5,119.574466 C53.46,110.814466 49.3,106.504466 41.14,106.504466 Z M1141.51674,78.3102297 C1141.79985,78.5913685 1141.93438,78.9892058 1141.88,79.3844658 L1141.88,91.7544658 C1141.93788,92.1513214 1141.80491,92.5522 1141.52132,92.8357885 C1141.23773,93.119377 1140.83686,93.2523494 1140.44,93.1944658 L1126.64,93.2444658 C1126.24314,93.3023494 1125.84227,93.169377 1125.55868,92.8857885 C1125.27509,92.6022 1125.14212,92.2013214 1125.2,91.8044658 L1125.2,79.3844658 C1125.14562,78.9892058 1125.28015,78.5913685 1125.56326,78.3102297 C1125.84636,78.029091 1126.24513,77.8973358 1126.64,77.9544658 L1140.44,77.9544658 C1140.83487,77.8973358 1141.23364,78.029091 1141.51674,78.3102297 Z M38.71,66.1544658 L16.5,66.1544658 L16.5,90.6444658 L38.71,90.6444658 C46.65,90.6444658 50.71,86.6444658 50.71,78.4044658 C50.71,70.1644658 46.71,66.1544658 38.71,66.1544658 Z M887.031323,59.0431431 C887.314911,59.3267316 887.447884,59.7276102 887.39,60.1244658 L887.39,72.4844658 C887.447884,72.8813214 887.314911,73.2822 887.031323,73.5657885 C886.747734,73.849377 886.346856,73.9823494 885.95,73.9244658 L872.14,73.9244658 C871.74474,73.9788427 871.346903,73.8443119 871.065764,73.5612072 C870.784625,73.2781024 870.65287,72.8793372 870.71,72.4844658 L870.71,60.1244658 C870.65287,59.7295944 870.784625,59.3308292 871.065764,59.0477244 C871.346903,58.7646197 871.74474,58.6300889 872.14,58.6844658 L885.95,58.6844658 C886.346856,58.6265822 886.747734,58.7595546 887.031323,59.0431431 Z M284.87,49.6044658 C290.99,49.6044658 292.81,51.6944658 292.81,57.9544658 L292.81,59.2044658 C292.81,65.7444658 290.99,67.6844658 284.87,67.6844658 L283.96,67.6844658 C278.11,67.6844658 276.02,65.7444658 276.02,59.2044658 L276.02,57.9544658 C276.02,51.6944658 277.85,49.6044658 283.96,49.6044658 L284.87,49.6044658 Z M93.68,49.6044658 C99.8,49.6044658 101.62,51.6944658 101.62,57.9544658 L101.62,59.2044658 C101.62,65.7444658 99.8,67.6844658 93.68,67.6844658 L92.77,67.6844658 C86.91,67.6844658 84.83,65.7444658 84.83,59.2044658 L84.83,57.9544658 C84.83,51.6944658 86.65,49.6044658 92.77,49.6044658 L93.68,49.6044658 Z"/>
    <path fill="#ED1C24" d="M576.34,8.93446576 C570.773591,12.071516 565.534276,15.756456 560.7,19.9344658 C545.06,33.7344658 533.7,52.0444658 532.7,78.4844658 C531.93,99.5444658 537.25,126.294466 571.47,149.694466 C586.02,159.334466 613.47,167.614466 637.47,167.614466 C682.11,167.614466 715.19,154.404466 715.19,131.614466 C715.19,120.514466 706.65,110.454466 692.65,103.034466 C692.288702,102.782407 691.914892,102.548775 691.53,102.334466 C686.96,99.9544658 686.6,98.0244658 687.34,96.0244658 C689.255703,91.1167492 692.055361,86.6020468 695.6,82.7044658 C696.752441,81.4656664 698.453202,80.8937292 700.12,81.1844658 C701.865301,81.4226014 703.585591,81.8175319 705.26,82.3644658 C745.8,94.7544658 758.66,122.964466 758.66,152.364466 C758.66,190.084466 724.42,242.574466 637.22,242.534512 C635.92,242.534512 634.64,242.474466 633.37,242.474466 C548.15,240.234466 490.81,174.194466 496.15,103.474466 C501.15,37.3444658 548.54,2.47446576 579.15,0.134465764 C594.82,-1.06553424 581.34,6.08446576 576.34,8.93446576 Z M661.06,41.7244658 C666.89,30.5644658 679.79,25.2544658 690.89,29.8144658 C701.92,34.3444658 707.33,47.0244658 703.85,59.0144658 C703.33763,60.6644959 702.538771,62.2114392 701.49,63.5844658 L701.49,63.5844658 L688.23,81.3144658 C682.324131,89.2386039 678.280569,98.3921615 676.4,108.094466 C674.471769,118.503748 673.205893,129.02488 672.61,139.594466 C671.43,157.914466 663.43,158.344466 663.43,158.344466 C663.0102,158.379512 642.24,160.096766 623.43,158.344466 C606.18,156.734466 611.27,147.654466 611.27,147.654466 L611.27,147.654466 L635.6,110.494466 L647.55,91.8444658 C651.168079,86.2079174 653.632289,79.9097389 654.8,73.3144658 L654.8,73.3144658 L659.61,46.0644658 C659.863991,44.5510205 660.353242,43.0866409 661.06,41.7244658 Z M646.76,78.2844658 C646.61538,80.0947919 646.105094,81.8569796 645.26,83.4644658 C644.42,85.2144658 643.26,87.6544658 642.09,88.8944658 C641.005896,90.1377328 639.378351,90.7663019 637.74,90.5744658 C633.18,90.2944658 602.1,89.0544658 576.81,97.3544658 C575.932226,97.6333162 574.983017,97.2240267 574.583245,96.3943115 C574.183473,95.5645964 574.454906,94.5671794 575.22,94.0544658 C585.53,87.3044658 606.74,78.0244658 644.47,74.9444658 C645.99,74.8144658 646.84,76.5944658 646.76,78.2844658 Z"/>
  </g>
</svg>
